<?xml version="1.0" encoding="utf-8"?>
<svg width="201px" height="106px" viewBox="0 0 201 106" version="1.1" xmlns:xlink="http://www.w3.org/1999/xlink" xmlns="http://www.w3.org/2000/svg">
  <g id="CHALIAR" fill="#FFFFFF" transform="translate(0 76.5)">
    <path d="M55.488 23.044Q52.992 23.044 50.988 21.94Q48.984 20.836 47.844 18.88Q46.704 16.924 46.704 14.5Q46.704 12.076 47.844 10.12Q48.984 8.164 51 7.06Q53.016 5.956 55.512 5.956Q57.384 5.956 58.968 6.58Q60.552 7.204 61.656 8.404L60.528 9.532Q58.56 7.54 55.56 7.54Q53.568 7.54 51.936 8.452Q50.304 9.364 49.38 10.948Q48.456 12.532 48.456 14.5Q48.456 16.468 49.38 18.052Q50.304 19.636 51.936 20.548Q53.568 21.46 55.56 21.46Q58.584 21.46 60.528 19.444L61.656 20.572Q60.552 21.772 58.956 22.408Q57.36 23.044 55.488 23.044ZM79.488 22.9L77.736 22.9L77.736 15.148L67.224 15.148L67.224 22.9L65.448 22.9L65.448 6.1L67.224 6.1L67.224 13.588L77.736 13.588L77.736 6.1L79.488 6.1L79.488 22.9ZM84.12 22.9L86.136 18.412L95.496 18.412L97.512 22.9L99.384 22.9L91.704 6.1L89.952 6.1L82.272 22.9L84.12 22.9ZM102.168 6.1L103.944 6.1L103.944 21.364L113.352 21.364L113.352 22.9L102.168 22.9L102.168 6.1ZM118.08 6.1L116.304 6.1L116.304 22.9L118.08 22.9L118.08 6.1ZM134.088 18.412L124.728 18.412L122.712 22.9L120.864 22.9L128.544 6.1L130.296 6.1L137.976 22.9L136.104 22.9L134.088 18.412ZM148.392 17.5L152.232 22.9L154.176 22.9L150.072 17.14Q151.92 16.54 152.916 15.184Q153.912 13.828 153.912 11.86Q153.912 9.172 152.088 7.636Q150.264 6.1 147.048 6.1L140.76 6.1L140.76 22.9L142.536 22.9L142.536 17.572L147.048 17.572Q147.744 17.572 148.392 17.5ZM150.816 14.956Q149.496 16.06 147 16.06L142.536 16.06L142.536 7.636L147 7.636Q149.496 7.636 150.816 8.728Q152.136 9.82 152.136 11.86Q152.136 13.852 150.816 14.956ZM90.816 7.948L94.848 16.972L86.784 16.972L90.816 7.948ZM133.44 16.972L129.408 7.948L125.376 16.972L133.44 16.972Z" />
  </g>
  <g id="Group-3" transform="translate(65 1.5)">
    <path d="M18 36C27.9411 36 36 27.9411 36 18C36 8.05887 27.9411 0 18 0C8.05887 0 0 8.05887 0 18C0 27.9411 8.05887 36 18 36Z" id="Oval" fill="#FFFFFF" fill-rule="evenodd" stroke="none" />
    <path d="M2.5 5C3.88071 5 5 3.88071 5 2.5C5 1.11929 3.88071 0 2.5 0C1.11929 0 0 1.11929 0 2.5C0 3.88071 1.11929 5 2.5 5Z" transform="translate(34 34)" id="Oval" fill="none" fill-rule="evenodd" stroke="#FFFFFF" stroke-width="1" />
    <path d="M2.5 5C3.88071 5 5 3.88071 5 2.5C5 1.11929 3.88071 0 2.5 0C1.11929 0 0 1.11929 0 2.5C0 3.88071 1.11929 5 2.5 5Z" transform="translate(40 40)" id="Oval" fill="none" fill-rule="evenodd" stroke="#FFFFFF" stroke-width="1" />
    <path d="M8.5 17C13.1944 17 17 13.1944 17 8.5C17 3.80558 13.1944 0 8.5 0C3.80558 0 0 3.80558 0 8.5C0 13.1944 3.80558 17 8.5 17Z" transform="translate(46 45)" id="Oval" fill="none" fill-rule="evenodd" stroke="#FFFFFF" stroke-width="3" />
    <path d="M9 18C13.9706 18 18 13.9706 18 9C18 4.02944 13.9706 0 9 0C4.02944 0 0 4.02944 0 9C0 13.9706 4.02944 18 9 18Z" transform="translate(9 9)" id="Oval" fill="none" fill-rule="evenodd" stroke="#2E9CE4" stroke-width="3" />
  </g>
</svg>