<svg width="101" height="107" viewBox="0 0 101 107" fill="none" xmlns="http://www.w3.org/2000/svg">
<path d="M50.25 0C34.8568 0 22.3333 12.5234 22.3333 27.9167C22.3333 43.3099 34.8568 55.8333 50.25 55.8333C65.6432 55.8333 78.1667 43.3099 78.1667 27.9167C78.1667 12.5234 65.6432 0 50.25 0ZM50.25 44.6667C41.0152 44.6667 33.5 37.1515 33.5 27.9167C33.5 18.6818 41.0152 11.1667 50.25 11.1667C59.4848 11.1667 67 18.6818 67 27.9167C67 37.1515 59.4848 44.6667 50.25 44.6667ZM100.5 106.083V100.5C100.5 78.9539 82.9628 61.4167 61.4167 61.4167H39.0833C17.5317 61.4167 0 78.9539 0 100.5V106.083H11.1667V100.5C11.1667 85.1068 23.6901 72.5833 39.0833 72.5833H61.4167C76.8099 72.5833 89.3333 85.1068 89.3333 100.5V106.083H100.5Z" fill="#7C7C7C"/>
</svg>
