<?xml version="1.0" encoding="utf-8"?>
<svg width="84px" height="82px" viewBox="0 0 84 82" version="1.1" xmlns:xlink="http://www.w3.org/1999/xlink" xmlns="http://www.w3.org/2000/svg">
  <defs>
    <filter filterUnits="userSpaceOnUse" color-interpolation-filters="sRGB" id="filter_1">
      <feFlood flood-opacity="0" result="BackgroundImageFix" />
      <feColorMatrix in="SourceAlpha" type="matrix" values="0 0 0 0 0 0 0 0 0 0 0 0 0 0 0 0 0 0 127 0" />
      <feOffset dx="0" dy="10" />
      <feGaussianBlur stdDeviation="10" />
      <feColorMatrix type="matrix" values="0 0 0 0 0 0 0 0 0 0 0 0 0 0 0 0 0 0 0.101960786 0" />
      <feBlend mode="normal" in2="BackgroundImageFix" result="effect0_dropShadow" />
      <feBlend mode="normal" in="SourceGraphic" in2="effect0_dropShadow" result="shape" />
    </filter>
  </defs>
  <path d="M8.4 0L6.204 2.4L2.4 2.4C1.08 2.4 0 3.48 0 4.8L0 19.2C0 20.52 1.08 21.6 2.4 21.6L21.6 21.6C22.92 21.6 24 20.52 24 19.2L24 4.8C24 3.48 22.92 2.4 21.6 2.4L17.796 2.4L15.6 0L8.4 0ZM12 18C8.688 18 6 15.312 6 12C6 8.688 8.688 6 12 6C15.312 6 18 8.688 18 12C18 15.312 15.312 18 12 18ZM15.84 12C15.84 14.1208 14.1208 15.84 12 15.84C9.87923 15.84 8.16 14.1208 8.16 12C8.16 9.87923 9.87923 8.16 12 8.16C14.1208 8.16 15.84 9.87923 15.84 12Z" transform="translate(30 20)" id="Combined-Shape" fill="#042C5C" fill-rule="evenodd" stroke="none" filter="url(#filter_1)" />
</svg>