<svg width="16" height="17" viewBox="0 0 16 17" fill="none" xmlns="http://www.w3.org/2000/svg">
<path d="M14.7509 14.7444L14.7509 14.7444L14.7501 14.7435L10.393 9.9771L10.3928 9.97686L9.40271 8.90798L14.75 3.07289C14.862 2.95073 14.9528 2.81504 15.0098 2.66567C15.066 2.51853 15.1 2.35835 15.1 2.19728C15.1 2.02767 15.0779 1.86619 15.0092 1.71553C14.9536 1.57027 14.8749 1.42238 14.7718 1.30982L14.7718 1.30977L14.7699 1.30793C14.6592 1.19913 14.5348 1.09989 14.397 1.03724C14.2584 0.974206 14.0988 0.949756 13.9526 0.949756C13.8029 0.949756 13.655 0.987444 13.5095 1.04851L13.5095 1.04849L13.5081 1.04909C13.3703 1.11177 13.2455 1.21122 13.1443 1.32168L6.99436 8.03256C6.89164 8.14465 6.81253 8.28076 6.75634 8.42792L6.75632 8.42791L6.75589 8.42913C6.70021 8.58711 6.66613 8.74697 6.66613 8.90817C6.66613 9.06923 6.70016 9.22942 6.75634 9.37656C6.81253 9.52372 6.89164 9.65982 6.99436 9.77191L13.1443 16.4828L13.1443 16.4828L13.1452 16.4838C13.3615 16.7074 13.6463 16.8191 13.9417 16.8191C14.2397 16.8191 14.5243 16.6817 14.7283 16.4591C14.9432 16.2246 15.0563 15.9282 15.0565 15.6081C15.0676 15.2873 14.9545 14.9789 14.7509 14.7444Z" fill="#181725" stroke="#181725" stroke-width="0.1"/>
<path d="M1.29905 3.02386L1.29904 3.02387L1.2999 3.02482L5.65698 7.79121L5.6572 7.79145L6.64726 8.86033L1.29994 14.6954C1.188 14.8176 1.09723 14.9533 1.04019 15.1026C0.984007 15.2498 0.949976 15.41 0.949976 15.571C0.949976 15.7406 0.972071 15.9021 1.04076 16.0528C1.09638 16.198 1.17506 16.3459 1.27821 16.4585L1.27816 16.4585L1.28004 16.4604C1.39083 16.5692 1.51514 16.6684 1.65294 16.7311C1.79157 16.7941 1.9512 16.8186 2.09739 16.8186C2.24707 16.8186 2.39501 16.7809 2.5405 16.7198L2.54051 16.7198L2.54184 16.7192C2.67969 16.6565 2.80448 16.5571 2.90571 16.4466L9.05559 9.73575C9.15831 9.62366 9.23743 9.48755 9.29362 9.34039L9.29363 9.3404L9.29406 9.33918C9.34975 9.1812 9.38383 9.02134 9.38383 8.86015C9.38383 8.69908 9.3498 8.53889 9.29362 8.39176C9.23743 8.24459 9.15831 8.10849 9.05559 7.9964L2.90571 1.28551L2.90572 1.2855L2.90478 1.28453C2.68848 1.06091 2.40366 0.949162 2.10826 0.949162C1.8103 0.949162 1.52571 1.08658 1.32168 1.30922C1.10678 1.54372 0.993643 1.84009 0.993439 2.16025C0.982361 2.48106 1.09551 2.78941 1.29905 3.02386Z" fill="#181725" stroke="#181725" stroke-width="0.1"/>
</svg>
