<?xml version="1.0" encoding="utf-8"?>
<svg width="24px" height="36px" viewBox="0 0 24 36" version="1.1" xmlns:xlink="http://www.w3.org/1999/xlink" xmlns="http://www.w3.org/2000/svg">
  <g id="Asset--Illustration--Big-box">
    <g id="Box-walls" transform="translate(0.36363637 6.181803)">
      <path d="M0 5.90114L0.000909091 17.7149L11.81 11.8091L11.81 0L0 5.90114Z" transform="translate(11.808205 5.9044776)" id="Fill-1" fill="#D9D9D9" fill-rule="evenodd" stroke="none" />
      <path d="M0 11.8091L11.8091 17.7149L11.8091 5.90583L0 0L0 11.8091Z" transform="translate(-1.2918959E-15 5.9044094)" id="Fill-2" fill="#F2F2F2" fill-rule="evenodd" stroke="none" />
      <path d="M11.809 0L0 5.89841L11.809 11.8089L23.618 5.90447L11.809 0Z" transform="translate(0.0001439394 7.7513755E-15)" id="Fill-3" fill="#F2F2F2" fill-rule="evenodd" stroke="none" />
      <path d="M0 0.0134091L0 0.0402273L11.8091 5.94621L11.8092 5.8925L0.0268939 0L0 0.0134091Z" transform="translate(0 5.8910003)" id="Fill-4" fill="#B5B5B5" fill-rule="evenodd" stroke="none" />
      <path d="M7.57576e-05 5.89265L0 5.94629L11.8091 0.0402273L11.8091 0.0134091L11.7823 0L7.57576e-05 5.89265Z" transform="translate(11.809084 5.8908715)" id="Fill-5" fill="#B5B5B5" fill-rule="evenodd" stroke="none" />
      <path d="M0 5.90591L11.8091 0L0 5.90591Z" transform="translate(11.809091 5.9044094)" id="Fill-6" fill="#94816C" fill-rule="evenodd" stroke="none" />
    </g>
    <g id="Box-decorations" transform="translate(0.6666667 7.37697)">
      <path d="M0.298586 1.45583L0.298586 0C0.298586 0 -0.373232 4.63174 0.298586 11.809L0.298586 9.95924C0.0385101 6.07356 0.168889 3.10402 0.298586 1.45583" transform="translate(11.20746 10.615145)" id="Fill-7" fill="#D9D9D9" fill-rule="evenodd" stroke="none" />
      <path d="M0.150082 10.951L0.150082 0C0.0203845 1.64811 -0.11007 7.0653 0.150082 10.951" transform="translate(11.356003 10.848485)" id="Fill-9" fill="#B5B5B5" fill-rule="evenodd" stroke="none" />
      <path d="M1.70417 6.95492L0 6.10265L0 0L1.70417 0.852273L1.70417 6.95492Z" transform="translate(4.377629 7.0813866)" id="Fill-11" fill="#FFD64D" fill-rule="evenodd" stroke="none" />
      <path d="M0 5.88098L1.70417 6.73303L13.6268 0.852045L11.9226 0L0 5.88098Z" transform="translate(4.3766594 1.201053)" id="Fill-13" fill="#FFD64D" fill-rule="evenodd" stroke="none" />
      <path d="M3.33106 2.72402L0.351515 1.85705L0 0L2.97947 0.867045L3.33106 2.72402Z" transform="translate(0.37055302 6.987053)" id="Fill-15" fill="#FFFFFF" fill-rule="evenodd" stroke="none" />
      <path d="M0.300455 1.22568L0.22803 1.20462L0 0L0.0724242 0.0210606L0.300455 1.22568Z" transform="translate(0.84393185 7.4330606)" id="Fill-17" fill="#2C323D" fill-rule="evenodd" stroke="none" />
      <path d="M0.264242 1.21515L0.22803 1.20462L0 0L0.0362121 0.0106061L0.264242 1.21515Z" transform="translate(0.9638561 7.4679317)" id="Fill-19" fill="#2C323D" fill-rule="evenodd" stroke="none" />
      <path d="M0.264242 1.21515L0.22803 1.20462L0 0L0.0361364 0.0105303L0.264242 1.21515Z" transform="translate(1.0475985 7.4923105)" id="Fill-21" fill="#2C323D" fill-rule="evenodd" stroke="none" />
      <path d="M0.264242 1.21515L0.22803 1.20462L0 0L0.0361364 0.0106061L0.264242 1.21515Z" transform="translate(1.1313107 7.5166516)" id="Fill-23" fill="#2C323D" fill-rule="evenodd" stroke="none" />
      <path d="M0.264242 1.21515L0.22803 1.20462L0 0L0.0362121 0.0105303L0.264242 1.21515Z" transform="translate(1.2150227 7.5410304)" id="Fill-25" fill="#2C323D" fill-rule="evenodd" stroke="none" />
      <path d="M0.300455 1.22568L0.22803 1.20462L0 0L0.0724243 0.0210606L0.300455 1.22568Z" transform="translate(1.298697 7.565379)" id="Fill-27" fill="#2C323D" fill-rule="evenodd" stroke="none" />
      <path d="M0.264242 1.21515L0.22803 1.20462L0 0L0.0362121 0.0106061L0.264242 1.21515Z" transform="translate(1.6584697 7.670053)" id="Fill-29" fill="#2C323D" fill-rule="evenodd" stroke="none" />
      <path d="M0.264242 1.21515L0.22803 1.20462L0 0L0.0362121 0.0105303L0.264242 1.21515Z" transform="translate(1.7421818 7.694432)" id="Fill-31" fill="#2C323D" fill-rule="evenodd" stroke="none" />
      <path d="M0.300454 1.22568L0.22803 1.20462L0 0L0.0724242 0.0211364L0.300454 1.22568Z" transform="translate(1.825894 7.7187805)" id="Fill-33" fill="#2C323D" fill-rule="evenodd" stroke="none" />
      <path d="M0.300455 1.22568L0.22803 1.20462L0 0L0.0724243 0.0211364L0.300455 1.22568Z" transform="translate(1.4186213 7.600265)" id="Fill-35" fill="#2C323D" fill-rule="evenodd" stroke="none" />
      <path d="M0.300454 1.22568L0.22803 1.20462L0 0L0.0724242 0.0210606L0.300454 1.22568Z" transform="translate(1.5385455 7.635182)" id="Fill-37" fill="#2C323D" fill-rule="evenodd" stroke="none" />
      <path d="M0.300455 1.22568L0.22803 1.20462L0 0L0.0723485 0.0211364L0.300455 1.22568Z" transform="translate(1.9458182 7.7536674)" id="Fill-39" fill="#2C323D" fill-rule="evenodd" stroke="none" />
      <path d="M0.264242 1.21515L0.22803 1.20462L0 0L0.0362121 0.0105303L0.264242 1.21515Z" transform="translate(2.0657425 7.7885756)" id="Fill-41" fill="#2C323D" fill-rule="evenodd" stroke="none" />
      <path d="M0.264242 1.21515L0.22803 1.20462L0 0L0.0362121 0.0105303L0.264242 1.21515Z" transform="translate(2.1494546 7.812947)" id="Fill-43" fill="#2C323D" fill-rule="evenodd" stroke="none" />
      <path d="M0.264242 1.21515L0.22803 1.20462L0 0L0.0362121 0.0105303L0.264242 1.21515Z" transform="translate(2.2331593 7.837288)" id="Fill-45" fill="#2C323D" fill-rule="evenodd" stroke="none" />
      <path d="M0.264242 1.21515L0.22803 1.20462L0 0L0.0362121 0.0105303L0.264242 1.21515Z" transform="translate(2.3168714 7.8616667)" id="Fill-47" fill="#2C323D" fill-rule="evenodd" stroke="none" />
      <path d="M0.300455 1.22568L0.22803 1.20462L0 0L0.0724243 0.0210606L0.300455 1.22568Z" transform="translate(2.4005833 7.886016)" id="Fill-49" fill="#2C323D" fill-rule="evenodd" stroke="none" />
      <path d="M0.264242 1.21515L0.22803 1.20462L0 0L0.0362121 0.0105303L0.264242 1.21515Z" transform="translate(2.7603183 7.9906898)" id="Fill-51" fill="#2C323D" fill-rule="evenodd" stroke="none" />
      <path d="M0.264242 1.21515L0.22803 1.20462L0 0L0.0362121 0.0105303L0.264242 1.21515Z" transform="translate(2.8440304 8.015068)" id="Fill-53" fill="#2C323D" fill-rule="evenodd" stroke="none" />
      <path d="M0.300455 1.22568L0.22803 1.20462L0 0L0.0724243 0.0210606L0.300455 1.22568Z" transform="translate(2.9277425 8.039417)" id="Fill-55" fill="#2C323D" fill-rule="evenodd" stroke="none" />
      <path d="M0.300455 1.22568L0.22803 1.20462L0 0L0.0724243 0.0211364L0.300455 1.22568Z" transform="translate(2.5204773 7.9209013)" id="Fill-57" fill="#2C323D" fill-rule="evenodd" stroke="none" />
      <path d="M0.300455 1.22568L0.22803 1.20462L0 0L0.0724243 0.0210606L0.300455 1.22568Z" transform="translate(2.6404016 7.955818)" id="Fill-59" fill="#2C323D" fill-rule="evenodd" stroke="none" />
      <path d="M3.74068 3.6497L0 1.77894L0 0L3.74068 1.87076L3.74068 3.6497Z" transform="translate(6.9310303 9.265121)" id="Fill-61" fill="#FFFFFF" fill-rule="evenodd" stroke="none" />
      <path d="M1.43826 2.03167C1.43826 2.08235 1.39712 2.10289 1.34644 2.07751L0.161439 1.48493C0.110758 1.45955 0.0696212 1.39788 0.0696212 1.3472L0.0696212 0.162127C0.0696212 0.111445 0.110758 0.0909146 0.161439 0.116293L1.34644 0.708869C1.39712 0.734248 1.43826 0.795915 1.43826 0.846597L1.43826 2.03167ZM1.41856 0.675385L0.0893182 0.0105358C0.0399242 -0.0140855 0 0.00591455 0 0.0552328L0 1.38448C0 1.43379 0.0399242 1.49379 0.0893182 1.51849L1.41856 2.18326C1.46788 2.20789 1.50788 2.18796 1.50788 2.13857L1.50788 0.809324C1.50788 0.760006 1.46788 0.700006 1.41856 0.675385L1.41856 0.675385Z" transform="translate(0.036863636 14.724518)" id="Fill-63" fill="#2C323D" fill-rule="evenodd" stroke="none" />
      <path d="M0.0840152 0.954545L0 0.9125L0 0L0.0840152 0.0420454L0.0840152 0.954545Z" transform="translate(0.4646667 15.218516)" id="Fill-65" fill="#2C323D" fill-rule="evenodd" stroke="none" />
      <path d="M0.114394 0L0 0.17197L0.114394 0.229091L0.228712 0.286288L0.114394 0Z" transform="translate(0.39230305 15.120152)" id="Fill-67" fill="#2C323D" fill-rule="evenodd" stroke="none" />
      <path d="M0.0840151 0.954546L0 0.912501L0 0L0.0840151 0.0420455L0.0840151 0.954546Z" transform="translate(1.0328864 15.502682)" id="Fill-69" fill="#2C323D" fill-rule="evenodd" stroke="none" />
      <path d="M0.114318 0L0 0.17197L0.114318 0.229091L0.228712 0.286288L0.114318 0Z" transform="translate(0.9605607 15.404311)" id="Fill-71" fill="#2C323D" fill-rule="evenodd" stroke="none" />
      <path d="M0 0.0839394L0 0L1.03348 0.516818L1.03348 0.600758L0 0.0839394Z" transform="translate(0.2740606 16.076622)" id="Fill-73" fill="#2C323D" fill-rule="evenodd" stroke="none" />
      <path d="M1.43826 2.0316C1.43826 2.08235 1.3972 2.10288 1.34644 2.07751L0.161439 1.48485C0.110758 1.45955 0.0696212 1.39788 0.0696212 1.3472L0.0696212 0.162127C0.0696212 0.111445 0.110758 0.0909146 0.161439 0.116293L1.34644 0.708869C1.3972 0.734248 1.43826 0.795915 1.43826 0.846596L1.43826 2.0316ZM1.41856 0.675384L0.0893182 0.0105358C0.04 -0.0140855 0 0.00591455 0 0.0552327L0 1.38448C0 1.43379 0.04 1.49379 0.0893182 1.51849L1.41856 2.18326C1.46788 2.20788 1.50788 2.18788 1.50788 2.13857L1.50788 0.809324C1.50788 0.760006 1.46788 0.700006 1.41856 0.675384L1.41856 0.675384Z" transform="translate(1.8247501 15.618661)" id="Fill-75" fill="#2C323D" fill-rule="evenodd" stroke="none" />
      <path d="M0.203333 0.774546L0.203333 0.774546C0.0910606 0.718409 0 0.581818 0 0.469621L0 0L0.406667 0.203409L0.406667 0.672879C0.406667 0.785227 0.315606 0.830682 0.203333 0.774546" transform="translate(2.6887653 16.181986)" id="Fill-77" fill="#2C323D" fill-rule="evenodd" stroke="none" />
      <path d="M0.0616287 0.514849L0.0141288 0.491061L0.0141288 0L0.0616287 0.0237879L0.0616287 0.514849Z" transform="translate(2.8542576 16.92479)" id="Fill-79" fill="#2C323D" fill-rule="evenodd" stroke="none" />
      <path d="M0 0.0293766L0 0.0293766C0 0.0030886 0.0212879 -0.00751748 0.0475758 0.00566437L0.359091 0.161347C0.385303 0.174528 0.406667 0.206498 0.406667 0.232786L0 0.0293766Z" transform="translate(2.6887956 17.329836)" id="Fill-81" fill="#2C323D" fill-rule="evenodd" stroke="none" />
      <path d="M0.364848 0.651894C0.364848 0.740984 0.292348 0.777197 0.203333 0.732651C0.114242 0.688181 0.0418182 0.579469 0.0418182 0.490379L0.0418182 0.0626515L0.364848 0.224167L0.364848 0.651894ZM0 0L0 0.469469C0 0.581742 0.0910606 0.718333 0.203333 0.774469C0.315606 0.830606 0.406591 0.785151 0.406591 0.672803L0.406591 0.203333L0 0Z" transform="translate(2.0619395 15.868584)" id="Fill-83" fill="#2C323D" fill-rule="evenodd" stroke="none" />
      <path d="M0.0616666 0.514849L0.0140909 0.491137L0.0140909 0L0.0616666 0.0238636L0.0616666 0.514849Z" transform="translate(2.2273712 16.611252)" id="Fill-85" fill="#2C323D" fill-rule="evenodd" stroke="none" />
      <path d="M0 0.0294034L0 0.0294034C0 0.00311558 0.0212879 -0.00749047 0.0475758 0.00561558L0.359015 0.161373C0.385303 0.174479 0.406591 0.206449 0.406591 0.232737L0 0.0294034Z" transform="translate(2.061947 17.016346)" id="Fill-87" fill="#2C323D" fill-rule="evenodd" stroke="none" />
      <path d="M1.43826 2.0316C1.43826 2.08235 1.3972 2.10288 1.34644 2.07751L0.161439 1.48485C0.110758 1.45955 0.0696212 1.39788 0.0696212 1.3472L0.0696212 0.162127C0.0696212 0.111445 0.110758 0.0909145 0.161439 0.116293L1.34644 0.708869C1.3972 0.734248 1.43826 0.795914 1.43826 0.846596L1.43826 2.0316ZM1.41856 0.675384L0.0893182 0.0105358C0.04 -0.0140854 0 0.00591455 0 0.0552327L0 1.38447C0 1.43379 0.04 1.49372 0.0893182 1.51849L1.41856 2.18319C1.46788 2.20788 1.50788 2.18788 1.50788 2.13857L1.50788 0.809323C1.50788 0.760005 1.46788 0.700005 1.41856 0.675384L1.41856 0.675384Z" transform="translate(3.6126363 16.512814)" id="Fill-89" fill="#2C323D" fill-rule="evenodd" stroke="none" />
      <path d="M0.169091 0.382244C0.207727 0.368154 0.25803 0.373078 0.313106 0.400578C0.368182 0.428153 0.418561 0.473608 0.457197 0.526335C0.495758 0.512244 0.546136 0.517093 0.601212 0.544744C0.656288 0.572244 0.706667 0.617623 0.745227 0.670426C0.783864 0.656335 0.834243 0.661259 0.889318 0.688759C0.901364 0.69482 0.913182 0.701714 0.924697 0.70929C0.903788 0.46179 0.704773 0.176184 0.462273 0.054972C0.220152 -0.0661642 0.0215152 0.0197448 0 0.245426C0.00818182 0.248608 0.0165909 0.25232 0.0250758 0.256563C0.0801515 0.284063 0.130455 0.329593 0.169091 0.382244" transform="translate(3.927326 17.063309)" id="Fill-91" fill="#2C323D" fill-rule="evenodd" stroke="none" />
      <path d="M0.123712 1.13333C0.0555303 1.09924 0 1.01591 0 0.947723L0 0.924011C0 0.909996 0.0114394 0.904314 0.0254545 0.911284C0.0394697 0.918329 0.0508333 0.935375 0.0508333 0.94939L0.0508333 0.973178C0.0508333 1.01333 0.0835606 1.06234 0.123712 1.08242C0.163939 1.10257 0.196591 1.08621 0.196591 1.04606L0.196591 0.0156772C0.196591 0.00166206 0.207954 -0.00401977 0.22197 0.00302569C0.23606 0.0100712 0.247424 0.0270409 0.247424 0.0411318L0.247424 1.07151C0.247424 1.13969 0.191894 1.16742 0.123712 1.13333" transform="translate(4.167568 17.045755)" id="Fill-93" fill="#2C323D" fill-rule="evenodd" stroke="none" />
      <path d="M3.2403 0.0489394L0.097803 1.62015L0 1.57129L3.1425 0L3.2403 0.0489394Z" transform="translate(8.8853035 0.061113637)" id="Fill-95" fill="#2C323D" fill-rule="evenodd" stroke="none" />
      <path d="M3.2403 0.0489394L0.097803 1.62023L0 1.57129L3.1425 0L3.2403 0.0489394Z" transform="translate(9.193697 0.2152879)" id="Fill-97" fill="#2C323D" fill-rule="evenodd" stroke="none" />
      <path d="M3.2403 0.0489394L0.097803 1.62023L0 1.57129L3.1425 0L3.2403 0.0489394Z" transform="translate(9.502091 0.3694697)" id="Fill-99" fill="#2C323D" fill-rule="evenodd" stroke="none" />
      <path d="M3.2403 0.0489394L0.097803 1.62015L0 1.57129L3.1425 0L3.2403 0.0489394Z" transform="translate(9.810448 0.5236818)" id="Fill-101" fill="#2C323D" fill-rule="evenodd" stroke="none" />
      <path d="M3.2403 0.0489394L0.097803 1.62023L0 1.57129L3.1425 0L3.2403 0.0489394Z" transform="translate(9.423379 7.1368256)" id="Fill-103" fill="#2C323D" fill-rule="evenodd" stroke="none" />
      <path d="M3.2403 0.0488637L0.097803 1.62015L0 1.57121L3.1425 0L3.2403 0.0488637Z" transform="translate(9.731773 7.291076)" id="Fill-105" fill="#2C323D" fill-rule="evenodd" stroke="none" />
      <path d="M3.2403 0.0489394L0.097803 1.62015L0 1.57129L3.1425 0L3.2403 0.0489394Z" transform="translate(10.040167 7.44522)" id="Fill-107" fill="#2C323D" fill-rule="evenodd" stroke="none" />
      <path d="M3.2403 0.0489394L0.097803 1.62023L0 1.57129L3.1425 0L3.2403 0.0489394Z" transform="translate(10.348523 7.599394)" id="Fill-109" fill="#2C323D" fill-rule="evenodd" stroke="none" />
    </g>
  </g>
</svg>