<?xml version="1.0" encoding="utf-8"?>
<svg width="22px" height="23px" viewBox="0 0 22 23" version="1.1" xmlns:xlink="http://www.w3.org/1999/xlink" xmlns="http://www.w3.org/2000/svg">
  <g id="pencil-copy-4" transform="translate(0.5 0.5)">
    <g id="Captions">
      <g id="g3016" transform="translate(0.25650412 0.21077307)">
        <g id="g3070" transform="translate(0.24449039 0.23166351)">
          <g id="g3348" transform="translate(0.20981623 0.060809404)">
            <path d="M12.794 0.00288062C12.1832 0.0325289 11.5852 0.292828 11.1449 0.76573L1.51122 11.1096C1.50973 11.1111 1.49226 11.1368 1.48329 11.1459C1.47059 11.1589 1.46257 11.1609 1.4367 11.1913L1.44601 11.2004C1.10602 11.5383 0.88425 11.9734 0.682017 12.4991C0.470596 13.0486 0.298414 13.6785 0.178904 14.3063C0.0593935 14.9341 -0.0127836 15.5528 0.00188199 16.0954C0.0165506 16.6379 0.0371819 17.1317 0.486362 17.5302C0.896903 17.8944 1.34938 17.8855 1.84663 17.8663C2.34388 17.847 2.9036 17.7548 3.47709 17.612C4.60144 17.332 5.74672 16.8923 6.48646 16.3406L6.49576 16.3496C6.509 16.3413 6.52003 16.3309 6.53303 16.3224C6.5367 16.3201 6.53869 16.3157 6.54233 16.3133C6.70051 16.2078 6.84566 16.0846 6.97091 15.9501L16.6139 5.59711C17.4955 4.65024 17.4161 3.16806 16.4462 2.30959L14.5176 0.602262C14.032 0.172405 13.4048 -0.0267676 12.794 0.00288062L12.794 0.00288062ZM12.8592 1.15624C13.1619 1.1414 13.4684 1.24548 13.7164 1.46501L15.645 3.17234C16.1424 3.61263 16.1793 4.3323 15.7288 4.8161L6.08583 15.169C6.00693 15.2538 5.92368 15.3186 5.84359 15.3688L5.82496 15.387L5.79702 15.4052C5.34159 15.7557 4.21706 16.2297 3.18828 16.4859C2.6739 16.614 2.17054 16.6895 1.80006 16.7038C1.42959 16.7182 1.2141 16.6023 1.28763 16.6675C1.36825 16.739 1.20585 16.4895 1.19446 16.0681C1.18307 15.6468 1.245 15.0817 1.35285 14.5152C1.4607 13.9486 1.61979 13.3763 1.80006 12.9077C1.98034 12.4392 2.20408 12.0738 2.30318 11.9814L2.33111 11.9542L2.34975 11.936C2.34074 11.9466 2.353 11.9272 2.38701 11.8906L12.03 1.54674C12.2557 1.30431 12.5566 1.17107 12.8592 1.15624L12.8592 1.15624Z" transform="translate(0.21240726 0.15150553)" id="path4346" fill="#D3DCEF" fill-rule="evenodd" stroke="#D3DCEF" stroke-width="0.5" />
            <path d="M0.253802 0.00407044C0.138293 0.0210177 0.0435744 0.102148 0.0114841 0.211627C-0.0206061 0.321105 0.0158428 0.438765 0.104731 0.512637L3.55199 3.56403C3.63188 3.63382 3.74389 3.65676 3.84583 3.62421C3.94777 3.59165 4.02415 3.50855 4.04617 3.40622C4.0682 3.30388 4.03254 3.19787 3.95262 3.12812L0.505359 0.0767227C0.43753 0.0159148 0.344667 -0.0109051 0.253802 0.00407044L0.253802 0.00407044Z" transform="translate(10.047997 3.8667667)" id="path4350" fill="#D3DCEF" fill-rule="evenodd" stroke="#D3DCEF" stroke-width="1" />
            <path d="M0.229573 0.228751C0.114064 0.245698 0.146978 0.19874 0.114888 0.308218C0.0827979 0.417697 -0.060182 0.720858 0.0287065 0.79473L3.99428 4.0501C4.07416 4.11989 4.18618 4.14283 4.28812 4.11027C4.39006 4.07772 4.46643 3.99462 4.48846 3.89228C4.51049 3.78995 4.47483 3.68393 4.39491 3.61418L0.624471 0.00554512C0.556642 -0.0552629 0.443973 0.403778 0.353108 0.418753C0.353108 0.418753 0.229573 0.228751 0.229573 0.228751Z" transform="translate(9.8134 3.1403787)" id="path4352" fill="#D3DCEF" fill-rule="evenodd" stroke="none" />
          </g>
        </g>
      </g>
    </g>
  </g>
</svg>