<?xml version="1.0" encoding="utf-8"?>
<svg width="380px" height="46px" viewbox="0 0 380 46" version="1.1" xmlns:xlink="http://www.w3.org/1999/xlink" xmlns="http://www.w3.org/2000/svg">
  <defs>
    <filter filterUnits="userSpaceOnUse" color-interpolation-filters="sRGB" id="filter_1">
      <feFlood flood-opacity="0" result="BackgroundImageFix" />
      <feColorMatrix in="SourceAlpha" type="matrix" values="0 0 0 0 0 0 0 0 0 0 0 0 0 0 0 0 0 0 127 0" />
      <feOffset dx="0" dy="2" />
      <feGaussianBlur stdDeviation="2" />
      <feColorMatrix type="matrix" values="0 0 0 0 0.05490196 0 0 0 0 0.101960786 0 0 0 0 0.3882353 0 0 0 0.09803922 0" />
      <feBlend mode="normal" in2="BackgroundImageFix" result="effect0_dropShadow" />
      <feBlend mode="normal" in="SourceGraphic" in2="effect0_dropShadow" result="shape" />
    </filter>
  </defs>
  <g id="Contents-de-vous-revoir" fill="#FFFFFF" filter="url(#filter_1)" transform="translate(6 4)">
    <path d="M59.1762 19.8413L54.7177 18.4937Q54.3808 20.0547 53.634 20.8745Q52.8872 21.6943 51.4272 21.6943Q49.9223 21.6943 49.0913 20.6792Q48.2602 19.6641 48.2602 16.927Q48.2602 14.7174 48.9565 13.6854Q49.8774 12.2944 51.6069 12.2944Q52.3706 12.2944 52.9882 12.6089Q53.6059 12.9233 54.0327 13.5073Q54.291 13.8555 54.5268 14.6079L59.019 13.6084Q58.1543 11.0029 56.3742 9.74512Q54.5942 8.4873 51.4834 8.4873Q47.5078 8.4873 45.3347 10.6815Q43.1616 12.8756 43.1616 16.9607Q43.1616 20.0247 44.3969 21.9887Q45.6323 23.9527 47.3337 24.7327Q49.0351 25.5127 51.7192 25.5127Q53.9316 25.5127 55.3635 24.8726Q56.7954 24.2324 57.7612 22.9746Q58.727 21.7168 59.1762 19.8413ZM95.2678 13.3052L95.2678 8.76807L90.6858 11.1152L90.6858 13.3052L89.0012 13.3052L89.0012 16.6519L90.6858 16.6519L90.6858 20.8468Q90.6858 22.8432 91.0733 23.7349Q91.4607 24.6265 92.2693 25.064Q93.0779 25.5015 94.7849 25.5015Q96.2561 25.5015 97.9519 25.1309L97.615 21.9756Q96.7053 22.2671 96.2 22.2671Q95.6384 22.2671 95.4138 21.886Q95.2678 21.6394 95.2678 20.8773L95.2678 16.6519L97.7835 16.6519L97.7835 13.3052L95.2678 13.3052ZM133.886 8.76807L133.886 13.3052L136.402 13.3052L136.402 16.6519L133.886 16.6519L133.886 20.8773Q133.886 21.6394 134.032 21.886Q134.257 22.2671 134.818 22.2671Q135.324 22.2671 136.233 21.9756L136.57 25.1309Q134.875 25.5015 133.403 25.5015Q131.696 25.5015 130.888 25.064Q130.079 24.6265 129.692 23.7349Q129.304 22.8432 129.304 20.8468L129.304 16.6519L127.62 16.6519L127.62 13.3052L129.304 13.3052L129.304 11.1152L133.886 8.76807ZM171.342 8.76807L171.342 25.2319L167.063 25.2319L167.063 23.4688Q166.164 24.5918 165.423 24.9849Q164.435 25.5015 163.222 25.5015Q160.785 25.5015 159.499 23.6484Q158.213 21.7954 158.213 19.145Q158.213 16.1802 159.634 14.6079Q161.054 13.0356 163.244 13.0356Q164.311 13.0356 165.182 13.395Q166.052 13.7544 166.726 14.4731L166.726 8.76807L171.342 8.76807ZM311.124 8.76807L315.695 8.76807L315.695 11.8789L311.124 11.8789L311.124 8.76807ZM61.8668 14.8044Q60.025 16.5732 60.025 19.3022Q60.025 22.2334 62.2037 24.0415Q63.9781 25.5015 66.8531 25.5015Q70.0762 25.5015 71.9012 23.7439Q73.7261 21.9863 73.7261 19.2349Q73.7261 16.7866 72.2549 15.1133Q70.4244 13.0356 66.8419 13.0356Q63.7085 13.0356 61.8668 14.8044ZM75.1701 13.3052L79.4264 13.3052L79.4264 15.248Q80.381 14.0576 81.3581 13.5466Q82.3351 13.0356 83.7389 13.0356Q85.6369 13.0356 86.7094 14.1643Q87.7819 15.293 87.7819 17.6514L87.7819 25.2319L83.1886 25.2319L83.1886 18.6733Q83.1886 17.5503 82.7731 17.0842Q82.3576 16.6182 81.6051 16.6182Q80.7741 16.6182 80.2575 17.2471Q79.7409 17.876 79.7409 19.5044L79.7409 25.2319L75.1701 25.2319L75.1701 13.3052ZM112.446 20.4028L103.282 20.4028Q103.405 21.5034 103.877 22.0425Q104.539 22.8174 105.606 22.8174Q106.28 22.8174 106.887 22.4805Q107.257 22.2671 107.684 21.728L112.187 22.1436Q111.154 23.9404 109.694 24.7209Q108.234 25.5015 105.505 25.5015Q103.136 25.5015 101.777 24.8333Q100.418 24.165 99.525 22.7107Q98.6322 21.2563 98.6322 19.291Q98.6322 16.4946 100.423 14.7651Q102.215 13.0356 105.37 13.0356Q107.931 13.0356 109.413 13.8105Q110.896 14.5855 111.671 16.0566Q112.446 17.5278 112.446 19.8862L112.446 20.4028ZM118.045 13.3052L113.789 13.3052L113.789 25.2319L118.359 25.2319L118.359 19.5044Q118.359 17.876 118.876 17.2471Q119.393 16.6182 120.224 16.6182Q120.976 16.6182 121.392 17.0842Q121.807 17.5503 121.807 18.6733L121.807 25.2319L126.4 25.2319L126.4 17.6514Q126.4 15.293 125.328 14.1643Q124.255 13.0356 122.357 13.0356Q120.954 13.0356 119.977 13.5466Q118.999 14.0576 118.045 15.248L118.045 13.3052ZM141.552 21.4922L137.015 21.9189Q137.408 23.6372 138.795 24.5693Q140.182 25.5015 143.45 25.5015Q145.763 25.5015 147.105 24.9237Q148.447 24.346 149.071 23.3699Q149.694 22.3938 149.694 21.3616Q149.694 20.3407 149.104 19.4881Q148.515 18.6354 147.403 18.1754Q146.291 17.7154 144.011 17.4575Q142.507 17.278 142.057 17.0537Q141.608 16.8294 141.608 16.3922Q141.608 15.9996 141.962 15.7249Q142.316 15.4502 143.091 15.4502Q143.854 15.4502 144.393 15.8096Q144.786 16.0791 144.955 16.6519L149.29 16.2251Q148.841 15.0571 148.161 14.3721Q147.482 13.687 146.465 13.3613Q145.449 13.0356 143.315 13.0356Q141.294 13.0356 140.092 13.4563Q138.89 13.8771 138.205 14.7297Q137.52 15.5823 137.52 16.7605Q137.52 17.8375 138.155 18.679Q138.789 19.5204 139.716 19.8738Q140.642 20.2272 143.023 20.6422Q144.618 20.9226 144.988 21.1132Q145.505 21.3823 145.505 21.8758Q145.505 22.3131 145.112 22.6045Q144.607 22.9971 143.686 22.9971Q142.843 22.9971 142.338 22.6489Q141.833 22.3008 141.552 21.4922ZM177.446 20.4028L186.61 20.4028L186.61 19.8862Q186.61 17.5278 185.835 16.0566Q185.06 14.5855 183.578 13.8105Q182.096 13.0356 179.535 13.0356Q176.379 13.0356 174.588 14.7651Q172.797 16.4946 172.797 19.291Q172.797 21.2563 173.69 22.7107Q174.582 24.165 175.941 24.8333Q177.3 25.5015 179.67 25.5015Q182.399 25.5015 183.859 24.7209Q185.319 23.9404 186.352 22.1436L181.849 21.728Q181.422 22.2671 181.051 22.4805Q180.445 22.8174 179.771 22.8174Q178.704 22.8174 178.041 22.0425Q177.57 21.5034 177.446 20.4028ZM210.196 14.8044Q208.354 16.5732 208.354 19.3022Q208.354 22.2334 210.533 24.0415Q212.307 25.5015 215.182 25.5015Q218.405 25.5015 220.23 23.7439Q222.055 21.9863 222.055 19.2349Q222.055 16.7866 220.584 15.1133Q218.754 13.0356 215.171 13.0356Q212.038 13.0356 210.196 14.8044ZM241.811 21.4922L237.274 21.9189Q237.667 23.6372 239.054 24.5693Q240.441 25.5015 243.709 25.5015Q246.023 25.5015 247.365 24.9237Q248.707 24.346 249.33 23.3699Q249.953 22.3938 249.953 21.3616Q249.953 20.3407 249.364 19.4881Q248.774 18.6354 247.662 18.1754Q246.551 17.7154 244.271 17.4575Q242.766 17.278 242.317 17.0537Q241.868 16.8294 241.868 16.3922Q241.868 15.9996 242.221 15.7249Q242.575 15.4502 243.35 15.4502Q244.114 15.4502 244.653 15.8096Q245.046 16.0791 245.214 16.6519L249.549 16.2251Q249.1 15.0571 248.42 14.3721Q247.741 13.687 246.725 13.3613Q245.708 13.0356 243.575 13.0356Q241.553 13.0356 240.351 13.4563Q239.15 13.8771 238.465 14.7297Q237.78 15.5823 237.78 16.7605Q237.78 17.8375 238.414 18.679Q239.049 19.5204 239.975 19.8738Q240.902 20.2272 243.283 20.6422Q244.877 20.9226 245.248 21.1132Q245.764 21.3823 245.764 21.8758Q245.764 22.3131 245.371 22.6045Q244.866 22.9971 243.945 22.9971Q243.103 22.9971 242.597 22.6489Q242.092 22.3008 241.811 21.4922ZM259.09 13.3052L263.369 13.3052L263.369 15.2593Q263.987 13.9902 264.644 13.5129Q265.301 13.0356 266.267 13.0356Q267.277 13.0356 268.479 13.6646L267.064 16.9214Q266.255 16.5845 265.784 16.5845Q264.885 16.5845 264.391 17.3257Q263.684 18.3701 263.684 21.2339L263.684 25.2319L259.09 25.2319L259.09 13.3052ZM272.573 20.4028L281.737 20.4028L281.737 19.8862Q281.737 17.5278 280.962 16.0566Q280.188 14.5855 278.705 13.8105Q277.223 13.0356 274.662 13.0356Q271.506 13.0356 269.715 14.7651Q267.924 16.4946 267.924 19.291Q267.924 21.2563 268.817 22.7107Q269.71 24.165 271.068 24.8333Q272.427 25.5015 274.797 25.5015Q277.526 25.5015 278.986 24.7209Q280.446 23.9404 281.479 22.1436L276.976 21.728Q276.549 22.2671 276.178 22.4805Q275.572 22.8174 274.898 22.8174Q273.831 22.8174 273.169 22.0425Q272.697 21.5034 272.573 20.4028ZM297.653 14.8044Q295.811 16.5732 295.811 19.3022Q295.811 22.2334 297.99 24.0415Q299.764 25.5015 302.639 25.5015Q305.862 25.5015 307.687 23.7439Q309.512 21.9863 309.512 19.2349Q309.512 16.7866 308.041 15.1133Q306.21 13.0356 302.628 13.0356Q299.494 13.0356 297.653 14.8044ZM322.182 13.3052L317.903 13.3052L317.903 25.2319L322.496 25.2319L322.496 21.2339Q322.496 18.3701 323.204 17.3257Q323.698 16.5845 324.596 16.5845Q325.068 16.5845 325.876 16.9214L327.291 13.6646Q326.09 13.0356 325.079 13.0356Q324.113 13.0356 323.456 13.5129Q322.799 13.9902 322.182 15.2593L322.182 13.3052ZM194.276 13.3052L199.032 13.3052L201.345 20.8633L203.746 13.3052L208.359 13.3052L203.29 25.2319L199.236 25.2319L194.276 13.3052ZM236.066 25.2319L231.799 25.2319L231.799 23.3003Q230.844 24.4907 229.873 24.9961Q228.901 25.5015 227.486 25.5015Q225.599 25.5015 224.527 24.3728Q223.454 23.2441 223.454 20.897L223.454 13.3052L228.048 13.3052L228.048 19.8638Q228.048 20.9868 228.463 21.4585Q228.879 21.9302 229.631 21.9302Q230.451 21.9302 230.973 21.3013Q231.495 20.6724 231.495 19.0439L231.495 13.3052L236.066 13.3052L236.066 25.2319ZM281.733 13.3052L286.488 13.3052L288.802 20.8633L291.203 13.3052L295.816 13.3052L290.747 25.2319L286.693 25.2319L281.733 13.3052ZM311.124 13.3052L315.695 13.3052L315.695 25.2319L311.124 25.2319L311.124 13.3052ZM107.796 18.2129Q107.661 16.8877 107.083 16.3149Q106.505 15.7422 105.561 15.7422Q104.472 15.7422 103.821 16.6069Q103.405 17.146 103.293 18.2129L107.796 18.2129ZM181.248 16.3149Q181.826 16.8877 181.961 18.2129L177.457 18.2129Q177.57 17.146 177.985 16.6069Q178.637 15.7422 179.726 15.7422Q180.669 15.7422 181.248 16.3149ZM276.375 16.3149Q276.953 16.8877 277.088 18.2129L272.585 18.2129Q272.697 17.146 273.112 16.6069Q273.764 15.7422 274.853 15.7422Q275.796 15.7422 276.375 16.3149ZM65.2527 21.6494Q64.607 20.8857 64.607 19.291Q64.607 17.7188 65.2584 16.9495Q65.9097 16.1802 66.9092 16.1802Q67.8526 16.1802 68.4927 16.9382Q69.1329 17.6963 69.1329 19.2461Q69.1329 20.9082 68.4983 21.6606Q67.8638 22.4131 66.8755 22.4131Q65.8985 22.4131 65.2527 21.6494ZM213.582 21.6494Q212.936 20.8857 212.936 19.291Q212.936 17.7188 213.588 16.9495Q214.239 16.1802 215.238 16.1802Q216.182 16.1802 216.822 16.9382Q217.462 17.6963 217.462 19.2461Q217.462 20.9082 216.827 21.6606Q216.193 22.4131 215.205 22.4131Q214.228 22.4131 213.582 21.6494ZM301.039 21.6494Q300.393 20.8857 300.393 19.291Q300.393 17.7188 301.044 16.9495Q301.696 16.1802 302.695 16.1802Q303.638 16.1802 304.279 16.9382Q304.919 17.6963 304.919 19.2461Q304.919 20.9082 304.284 21.6606Q303.65 22.4131 302.661 22.4131Q301.684 22.4131 301.039 21.6494ZM166.76 19.2349Q166.76 17.8311 166.164 17.1404Q165.569 16.4497 164.659 16.4497Q163.862 16.4497 163.323 17.1123Q162.784 17.7749 162.784 19.3359Q162.784 20.7959 163.34 21.4753Q163.896 22.1548 164.716 22.1548Q165.592 22.1548 166.176 21.4697Q166.76 20.7847 166.76 19.2349Z" />
  </g>
</svg>