<svg width="23" height="21" viewBox="0 0 23 21" fill="none" xmlns="http://www.w3.org/2000/svg">
<path d="M9.22593 20.518C8.57738 20.518 7.95539 20.2604 7.4968 19.8018C7.0382 19.3432 6.78057 18.7212 6.78057 18.0726C6.78057 17.4241 7.0382 16.8021 7.4968 16.3435C7.95539 15.8849 8.57738 15.6273 9.22593 15.6273C9.87448 15.6273 10.4965 15.8849 10.9551 16.3435C11.4137 16.8021 11.6713 17.4241 11.6713 18.0726C11.6713 18.7212 11.4137 19.3432 10.9551 19.8018C10.4965 20.2604 9.87448 20.518 9.22593 20.518ZM17.7847 20.518C17.1361 20.518 16.5142 20.2604 16.0556 19.8018C15.597 19.3432 15.3393 18.7212 15.3393 18.0726C15.3393 17.4241 15.597 16.8021 16.0556 16.3435C16.5142 15.8849 17.1361 15.6273 17.7847 15.6273C18.4333 15.6273 19.0552 15.8849 19.5138 16.3435C19.9724 16.8021 20.2301 17.4241 20.2301 18.0726C20.2301 18.7212 19.9724 19.3432 19.5138 19.8018C19.0552 20.2604 18.4333 20.518 17.7847 20.518ZM1.84338 3.3063C1.53815 3.29645 1.24872 3.16828 1.03629 2.94888C0.823853 2.72949 0.705078 2.43607 0.705078 2.13069C0.705078 1.8253 0.823853 1.53188 1.03629 1.31249C1.24872 1.09309 1.53815 0.964923 1.84338 0.955078L3.25069 0.955078C4.35354 0.955078 5.30724 1.72048 5.54688 2.79644L7.0789 9.69481C7.31855 10.7708 8.27224 11.5362 9.3751 11.5362H18.5599L20.323 4.48129H8.89703C8.59467 4.4675 8.30927 4.33768 8.10019 4.11883C7.8911 3.89999 7.77443 3.60897 7.77443 3.3063C7.77443 3.00363 7.8911 2.7126 8.10019 2.49376C8.30927 2.27492 8.59467 2.1451 8.89703 2.1313H20.323C20.6804 2.13119 21.0332 2.21258 21.3544 2.36927C21.6757 2.52597 21.957 2.75384 22.1769 3.03557C22.3969 3.31731 22.5497 3.64548 22.6238 3.99515C22.6979 4.34482 22.6913 4.70678 22.6045 5.05351L20.8414 12.1059C20.7143 12.6148 20.4207 13.0666 20.0073 13.3894C19.5939 13.7122 19.0844 13.8875 18.5599 13.8874H9.3751C8.305 13.8875 7.26686 13.5227 6.43212 12.8531C5.59738 12.1836 5.01598 11.2493 4.78393 10.2047L3.25069 3.3063H1.84338Z" fill="#7C7C7C"/>
</svg>
