<?xml version="1.0" encoding="utf-8"?>
<svg width="12px" height="13px" viewBox="0 0 12 13" version="1.1" xmlns:xlink="http://www.w3.org/1999/xlink" xmlns="http://www.w3.org/2000/svg">
  <g id="22)-IconsFilledStar">
    <path d="M8.45354 11.7705C8.36645 11.7709 8.28055 11.7476 8.20304 11.7024L5.42579 10.0487L2.64855 11.7024C2.46456 11.8125 2.24154 11.7938 2.07372 11.6542C1.90591 11.5147 1.82258 11.2787 1.85894 11.0459L2.40349 7.55884L0.159913 5.08137C0.0172689 4.91946 -0.0351023 4.6812 0.023773 4.462C0.0881638 4.23743 0.259253 4.07407 0.464865 4.04083L3.56885 3.52675L4.93569 0.349392C5.02668 0.135716 5.21705 0 5.42579 0C5.63454 0 5.82491 0.135716 5.9159 0.349392L7.29908 3.52056L10.4031 4.03463C10.6087 4.06787 10.7798 4.23123 10.8442 4.4558C10.903 4.67501 10.8507 4.91327 10.708 5.07517L8.46443 7.55265L9.00899 11.0397C9.04868 11.2768 8.96367 11.5185 8.79117 11.6591C8.69256 11.7377 8.57382 11.7769 8.45354 11.7705L8.45354 11.7705Z" transform="translate(0.55698115 0.60339624)" id="Shape" fill="#042C5C" fill-rule="evenodd" stroke="none" />
  </g>
</svg>